<?xml version="1.0" standalone="no"?>
<!DOCTYPE svg PUBLIC "-//W3C//DTD SVG 20010904//EN"
 "http://www.w3.org/TR/2001/REC-SVG-20010904/DTD/svg10.dtd">
<svg version="1.0" xmlns="http://www.w3.org/2000/svg"
 width="512.000000pt" height="512.000000pt" viewBox="0 0 512.000000 512.000000"
 preserveAspectRatio="xMidYMid meet">
<metadata>
Created by potrace 1.11, written by Peter Selinger 2001-2013
</metadata>
<g transform="translate(0.000000,512.000000) scale(0.100000,-0.100000)"
fill="#000000" stroke="none">
<path d="M404 4357 c-2 -7 -3 -853 -2 -1882 l3 -1870 406 -1 406 -1 1 1076 c0
592 1 1087 1 1100 1 26 14 6 281 -434 70 -115 185 -304 255 -420 166 -272 228
-374 280 -460 23 -38 86 -142 140 -230 54 -88 108 -177 119 -197 l21 -38 200
0 200 1 170 285 c94 158 180 303 191 323 61 102 314 529 409 687 28 46 103
173 167 281 65 109 128 215 141 237 l24 38 2 -738 c2 -407 4 -912 4 -1124 l2
-385 408 -1 c366 -1 407 1 408 15 0 9 0 315 -1 681 -3 1234 -9 3015 -9 3042
l-1 27 -357 -1 -357 0 -32 -52 c-31 -51 -178 -299 -424 -716 -73 -124 -141
-237 -151 -252 -11 -15 -19 -30 -19 -33 0 -3 -11 -23 -25 -44 -13 -22 -104
-174 -201 -338 -97 -164 -233 -392 -302 -508 -68 -115 -133 -224 -143 -242
-10 -17 -29 -49 -42 -70 -13 -21 -26 -46 -30 -55 -8 -23 -26 -23 -34 0 -4 9
-9 19 -12 22 -3 3 -12 16 -20 30 -8 14 -131 219 -274 455 -143 237 -267 444
-277 460 -9 17 -70 118 -135 225 -204 338 -230 379 -248 413 -10 17 -110 183
-221 367 l-203 335 -357 2 c-269 1 -358 -1 -362 -10z"/>
</g>
</svg>
