<svg 
 xmlns="http://www.w3.org/2000/svg"
 xmlns:xlink="http://www.w3.org/1999/xlink"
 width="8px" height="17px">
<path fill-rule="evenodd" fill="rgb(149, 225, 211)"
 d="M7.993,0.015 C7.993,0.937 7.993,2.590 7.993,2.590 C7.993,2.590 6.095,2.401 5.619,3.128 C5.359,3.527 5.514,4.691 5.491,5.527 C6.319,5.527 7.180,5.527 8.009,5.527 C7.796,6.505 7.644,7.167 7.487,8.014 C6.770,8.014 5.477,8.014 5.477,8.014 L5.477,16.016 C5.477,16.016 3.104,16.016 1.988,16.016 C1.989,13.549 1.987,10.671 1.988,8.045 C1.446,8.045 1.045,8.045 0.504,8.045 C0.504,7.122 0.504,6.450 0.504,5.527 C1.029,5.527 1.446,5.527 1.972,5.527 C2.047,3.686 2.075,1.862 2.990,0.933 C4.018,-0.111 4.998,0.015 7.993,0.015 Z"/>
</svg>